# xmcd
#
# Track frame offsets:
#	150
#	18297
#	37671
#	55327
#	70521
#	86067
#	108423
#	126884
#	150676
#	169199
#
# Disc length: 2606 seconds
#
# Revision: 2
# Processed by: cddbd v1.5.1PL0 Copyright (c) Steve Scherf et al.
# Submitted via: EasyCDDAExtractor 8.1.0.1
#
DISCID=750a2c0a
DTITLE=South Of Nowhere - 78016
DYEAR=2005
DGENRE=Country-Rock
TTITLE0=South Of Nowhere
TTITLE1=Lonely Rider
TTITLE2=Two Flags
TTITLE3=Sing To Me
TTITLE4=Roll Into Laredo
TTITLE5=It Makes No Difference
TTITLE6=Drive A Team
TTITLE7=Indigent Blues
TTITLE8=Forever More
TTITLE9=Fair Share Of Days
EXTD=
EXTT0=
EXTT1=
EXTT2=
EXTT3=
EXTT4=
EXTT5=
EXTT6=
EXTT7=
EXTT8=
EXTT9=
PLAYORDER=
